<mxfile host="app.diagrams.net" modified="2024-05-27T06:52:57.557Z" agent="Mozilla/5.0 (Windows NT 10.0; Win64; x64) AppleWebKit/537.36 (KHTML, like Gecko) Chrome/125.0.0.0 Safari/537.36" version="24.4.0" etag="y9zmbKkxdiQN3SfoWyIR" type="github">
  <diagram name="Page-1" id="Io240eUcN87n2VbSS_Kx">
    <mxGraphModel>
      <root>
        <mxCell id="0" />
        <mxCell id="1" parent="0" />
      </root>
    </mxGraphModel>
  </diagram>
</mxfile>
